<svg width="135" height="185" viewBox="0 0 135 185" fill="none" xmlns="http://www.w3.org/2000/svg">
<path d="M65.8637 146.332H132.849V183H4.49217V153.388L48.449 108.938L48.4608 108.926L48.4724 108.914C61.1876 95.6173 69.5613 86.4941 73.5302 81.5963L73.5354 81.5898L73.5406 81.5833C77.4921 76.623 80.3158 72.2688 81.9153 68.5439C83.6069 64.7979 84.4551 60.8638 84.4551 56.7599C84.4551 51.5438 82.7389 47.2226 79.1707 44.0401C75.6151 40.8689 70.7543 39.416 64.8657 39.416C58.7271 39.416 52.5717 41.198 46.423 44.6614C40.8531 47.7652 34.6387 52.2416 27.786 58.0547L3.29151 29.3837C11.9965 21.7098 19.284 16.2622 25.1733 12.9734L25.1819 12.9686L25.1904 12.9637C31.4303 9.39808 38.2056 6.67792 45.5238 4.8075C52.9023 2.9429 61.2158 2 70.4794 2C82.0523 2 92.2854 4.03674 101.219 8.0609L101.225 8.06363C110.227 12.0824 117.108 17.7914 121.949 25.1731L121.956 25.1836L121.963 25.1939C126.888 32.5022 129.356 40.7177 129.356 49.8989C129.356 56.8801 128.463 63.2949 126.697 69.1565L126.693 69.1686L126.689 69.1807C125.001 75.0488 122.342 80.8619 118.692 86.6211C115.038 92.3051 110.138 98.3561 103.967 104.774L103.958 104.783C97.8683 111.202 84.7478 123.457 64.5282 141.596L63.8637 142.192V143.085V144.332V146.332H65.8637Z" stroke="#2B2B2B" stroke-width="4"/>
</svg>
