<svg width="130" height="185" viewBox="0 0 130 185" fill="none" xmlns="http://www.w3.org/2000/svg">
<path d="M54.5149 183C44.9269 183 36.0539 182.309 27.8908 180.935C20.2061 179.629 11.8605 177.288 2.84888 173.897V138.121C9.91926 141.495 17.0965 144.067 24.3797 145.833L24.3911 145.835L24.4026 145.838C32.7243 147.752 40.4263 148.72 47.4989 148.72C58.2607 148.72 66.4774 147.246 71.8041 143.996L71.8121 143.991C77.3977 140.547 80.1476 135.14 80.1476 128.134C80.1476 122.882 78.7876 118.542 75.7792 115.429C72.8535 112.321 68.3217 110.188 62.4887 108.833C56.6102 107.387 49.0511 106.686 39.8675 106.686H30.7897V74.1291H40.1137C52.5691 74.1291 62.213 72.5467 68.8116 69.1707C72.1398 67.4679 74.7502 65.2796 76.5231 62.5584C78.3027 59.8269 79.1629 56.6736 79.1629 53.1737C79.1629 47.805 77.0262 43.598 72.6896 40.8957C68.6477 38.3265 63.3489 37.1417 56.9766 37.1417C45.5693 37.1417 33.8788 40.7993 21.9309 47.9674L3.80814 18.7942C12.6588 12.9015 21.6576 8.68178 30.8056 6.111C40.6055 3.38011 51.8657 2 64.608 2C82.9995 2 97.1515 5.64985 107.283 12.7181C117.329 19.7273 122.305 29.2885 122.305 41.6035C122.305 52.3186 119.05 61.4524 112.566 69.1097C106.076 76.6928 96.6131 82.3028 84.0084 85.8353L82.5481 86.2446V87.7611V88.4997V90.264L84.2987 90.4841C99.0811 92.3419 109.876 96.7326 116.962 103.431C123.994 110.08 127.598 119.215 127.598 131.088C127.598 147.201 121.247 159.762 108.487 168.977L108.482 168.981C95.7337 178.245 77.8227 183 54.5149 183Z" stroke="#2B2B2B" stroke-width="4"/>
</svg>
