<svg width="127" height="185" viewBox="0 0 127 185" fill="none" xmlns="http://www.w3.org/2000/svg">
<path d="M98.575 72.007L98.5851 72.0128L98.5952 72.0186C106.74 76.65 113.047 83.2294 117.535 91.8046L117.539 91.8111L117.542 91.8175C122.109 100.391 124.423 110.336 124.423 121.711C124.423 141.675 118.41 156.715 106.622 167.149L106.617 167.154C94.8992 177.596 76.9111 183 52.2727 183C31.7506 183 15.0578 179.92 2.09326 173.876V137.765C8.73959 140.596 16.0762 142.964 24.0962 144.877L24.1001 144.878C33.3465 147.064 41.3734 148.177 48.1533 148.177C57.5515 148.177 65.0867 146.217 70.4795 142.012L70.4878 142.006L70.496 142C75.9817 137.63 78.6149 131.251 78.6149 123.208C78.6149 115.675 75.8894 109.614 70.3583 105.281C64.857 100.972 56.7558 98.9885 46.4057 98.9885C38.6439 98.9885 30.3303 100.407 21.4775 103.206L5.30426 95.1747L11.9423 2H112.189V39.0695H52.0231H50.2009L50.0317 40.8838L47.7848 64.9762L47.5373 67.6291L50.1538 67.126C56.6451 65.8776 61.1232 65.2416 63.693 65.1637L63.7232 65.1628L63.7534 65.161C66.4663 64.9966 68.9637 64.915 71.2471 64.915C81.4067 64.915 90.4994 67.2895 98.575 72.007Z" stroke="#2B2B2B" stroke-width="4"/>
</svg>
