<svg width="132" height="185" viewBox="0 0 132 185" fill="none" xmlns="http://www.w3.org/2000/svg">
<path d="M109.003 13.0651L109.009 13.0695C119.029 20.293 124.057 30.4964 124.057 43.9421C124.057 53.0893 121.659 61.0542 116.905 67.9125L116.902 67.9164C112.231 74.6892 104.706 80.7316 94.1498 85.9696L90.7791 87.6421L94.0511 89.5003C107.236 96.9877 116.305 104.365 121.478 111.575L121.485 111.585L121.492 111.595C126.755 118.743 129.35 126.415 129.35 134.657C129.35 150.106 123.802 161.877 112.785 170.236C101.684 178.661 86.0037 183 65.4979 183C44.5579 183 28.8495 178.774 18.091 170.608C7.41709 162.426 2.0155 150.705 2.0155 135.15C2.0155 125.059 4.43429 116.608 9.17355 109.694L9.17938 109.685C13.9244 102.684 22.0113 96.1893 33.661 90.2835L36.7016 88.7421L33.8727 86.84C24.5215 80.5521 17.7874 73.8993 13.5486 66.918C9.38966 59.8512 7.30825 52.1239 7.30825 43.6959C7.30825 30.5231 12.3971 20.4375 22.5904 13.201L22.5904 13.201L22.5987 13.1951C32.89 5.81055 47.2789 2 65.9902 2C84.7092 2 98.9659 5.7726 109.003 13.0651ZM48.6817 147.003L48.6916 147.011L48.7017 147.02C52.7833 150.452 58.3023 152.043 65.0055 152.043C72.4119 152.043 78.3289 150.697 82.4354 147.687C86.6577 144.592 88.6689 139.963 88.6689 134.165C88.6689 129.578 86.8354 125.209 83.4223 121.089C80.0706 116.864 74.1995 112.329 66.0294 107.46L65.0647 106.885L64.0716 107.41C56.6614 111.323 51.1418 115.372 47.6981 119.61L47.6951 119.614C44.3317 123.774 42.5731 128.31 42.5731 133.18C42.5731 138.805 44.5991 143.477 48.6817 147.003ZM64.2691 68.5783L65.2633 69.1391L66.2518 68.5683C72.1358 65.1705 76.399 61.9331 78.7799 58.8197C81.1815 55.6791 82.3914 52.0925 82.3914 48.1271C82.3914 43.631 80.7187 39.8927 77.3594 37.1093C74.0996 34.4083 70.1917 33.0798 65.744 33.0798C61.142 33.0798 57.1411 34.4443 53.8696 37.2431C50.5299 40.0162 48.8505 43.7039 48.8505 48.1271C48.8505 56.2553 54.4188 63.0217 64.2691 68.5783Z" stroke="#2B2B2B" stroke-width="4"/>
</svg>
