<svg width="134" height="185" viewBox="0 0 134 185" fill="none" xmlns="http://www.w3.org/2000/svg">
<path d="M14.584 182.008V147.466C21 148.529 27.419 149.061 33.8398 149.061C51.545 149.061 65.506 145.433 75.4573 137.904L75.466 137.898C85.5391 130.19 90.8507 118.147 91.6954 102.183L91.8068 100.077H89.6982H88.2152H87.024L86.4566 101.125C83.2956 106.961 80.266 110.996 77.4113 113.4C74.5152 115.839 70.9317 117.741 66.6159 119.075C62.3381 120.397 56.909 121.086 50.276 121.086C35.1173 121.086 23.4803 116.047 15.1021 106.103C6.681 96.1077 2.34949 82.2015 2.34949 64.1383C2.34949 44.5128 7.90973 29.378 18.8151 18.471C29.8095 7.55713 44.9093 2 64.3642 2C85.9544 2 102.44 9.14276 114.108 23.2709C125.82 37.4529 131.816 57.7788 131.816 84.5291C131.816 119.656 124.231 144.611 109.514 159.885C94.8082 175.147 71.0649 183 37.7944 183C27.8527 183 20.1298 182.664 14.584 182.008ZM51.1169 43.545L51.1089 43.5542L51.101 43.5635C47.3474 47.9739 45.6808 54.7765 45.6808 63.5204C45.6808 70.5452 47.1791 76.3926 50.3787 80.8719L50.3844 80.8799L50.3901 80.8878C53.7318 85.4707 58.811 87.6413 65.2292 87.6413C71.1268 87.6413 76.2787 85.4865 80.5931 81.262C84.9242 77.0212 87.1257 71.8544 87.1257 65.8684C87.1257 58.187 85.1786 51.4719 81.2068 45.8191C77.2709 40.0985 72.083 37.0514 65.7236 37.0514C59.8184 37.0514 54.8925 39.2169 51.1169 43.545Z" stroke="#2B2B2B" stroke-width="4"/>
</svg>
